# xmcd
#
# Track frame offsets:
# 150
# 24825
# 35625
# 58800
# 75225
# 83700
# 92475
# 106650
# 109725
# 135675
# 147600
# 159825
# 168450
# 200700
# 208500
# 215850
# 218850
# 223200
# 229575
#
# Disc length: 3510 seconds
#
#
# Revision: 0
# Processed by: cddbd v1.5.2PL0 Copyright (c) Steve Scherf et al.
# Submitted via: FreeRIP 2.96 
#
DISCID=0e0db413
DTITLE=Brigitte Riebe - Auge des Mondes
DYEAR=2007
DGENRE=Hörbuch
TTITLE0=49 Auge des Mondes
TTITLE1=50 Auge des Mondes
TTITLE2=51 Auge des Mondes
TTITLE3=52 Auge des Mondes
TTITLE4=53 Auge des Mondes
TTITLE5=54 Auge des Mondes
TTITLE6=55 Auge des Mondes
TTITLE7=56 Auge des Mondes
TTITLE8=57 Auge des Mondes
TTITLE9=58 Auge des Mondes
TTITLE10=59 Auge des Mondes
TTITLE11=60 Auge des Mondes
TTITLE12=61 Auge des Mondes
TTITLE13=62 Auge des Mondes
TTITLE14=63 Auge des Mondes
TTITLE15=64 Auge des Mondes
TTITLE16=65 Auge des Mondes
TTITLE17=66  Auge des Mondes
TTITLE18=67 Auge des Mondes
EXTD=gelesen von Andreas Hörnke-Trieß
EXTT0=
EXTT1=
EXTT2=
EXTT3=
EXTT4=
EXTT5=
EXTT6=
EXTT7=
EXTT8=
EXTT9=
EXTT10=
EXTT11=
EXTT12=
EXTT13=
EXTT14=
EXTT15=
EXTT16=
EXTT17=
EXTT18=
PLAYORDER=
